D:\school\WTK\thesis\model\3dpredictsim\Results\batch_windlass\Pog_s1_tmt_bCst_d05_k1000_WL30_ig24_act_TTC_GRF.mot
nRows=27
nColumns=19

name D:\school\WTK\thesis\model\3dpredictsim\Results\batch_windlass\Pog_s1_tmt_bCst_d05_k1000_WL30_ig24_act_TTC_GRF.mot
datacolumns 19
datarows 27
range 0.6012486323 0.9138979211
endheader
time 	ground_force_vx	ground_force_vy	ground_force_vz	ground_force_px	ground_force_py	ground_force_pz	1_ground_force_vx	1_ground_force_vy	1_ground_force_vz	1_ground_force_px	1_ground_force_py	1_ground_force_pz	ground_torque_x	ground_torque_y	ground_torque_z	1_ground_torque_x	1_ground_torque_y	1_ground_torque_z
        0.6012486323	      100.9388159216	      410.3291744085	        2.3090386409	        0.3910407502	        0.0000000000	        0.0379575012	      -57.8886140922	       40.6115119790	       -8.9888707663	        0.9156180687	        0.0000000000	       -0.0591081098	        0.0000000000	        0.0000000000	        0.0000000000	        0.0000000000	        0.0000000000	        0.0000000000	
        0.6132736050	       68.1101912119	      310.0046948211	        6.8045082179	        0.3996887513	        0.0000000000	        0.0343588464	     -120.9842046803	      103.5124524203	      -24.1152219055	        0.9290306334	        0.0000000000	       -0.0576684211	        0.0000000000	        0.0000000000	        0.0000000000	        0.0000000000	        0.0000000000	        0.0000000000	
        0.6252985776	       41.4107519377	      222.2589567287	       16.7499803415	        0.4106884461	        0.0000000000	        0.0294999504	     -123.7038327009	      253.0923934794	      -33.4977947863	        0.9421717480	        0.0000000000	       -0.0577316490	        0.0000000000	        0.0000000000	        0.0000000000	        0.0000000000	        0.0000000000	        0.0000000000	
        0.6373235503	       31.9849516670	      181.2607941936	       16.3984344040	        0.4128506121	        0.0000000000	        0.0283052751	      -95.2574857680	      579.0309831036	        8.6442810153	        0.9564700195	        0.0000000000	       -0.0595850567	        0.0000000000	        0.0000000000	        0.0000000000	        0.0000000000	        0.0000000000	        0.0000000000	
        0.6493485229	       24.9416760516	      134.9078559793	       14.3283463188	        0.4130295077	        0.0000000000	        0.0282823150	     -118.9896094617	      807.1205163102	       23.4920501808	        0.9642704375	        0.0000000000	       -0.0607806251	        0.0000000000	        0.0000000000	        0.0000000000	        0.0000000000	        0.0000000000	        0.0000000000	
        0.6613734955	        5.6347908089	       78.4861222163	       12.4659288609	        0.4122404157	        0.0000000000	        0.0284927723	     -146.1926120405	      897.7088543378	       27.9831177122	        0.9721151812	        0.0000000000	       -0.0610046506	        0.0000000000	        0.0000000000	        0.0000000000	        0.0000000000	        0.0000000000	        0.0000000000	
        0.6733984682	       -7.2724939850	       14.0509090107	        1.7229519120	        0.4086100103	        0.0000000000	        0.0277310643	     -160.5654568184	      927.9667324803	       24.4858035343	        0.9815016189	        0.0000000000	       -0.0603601782	        0.0000000000	        0.0000000000	        0.0000000000	        0.0000000000	        0.0000000000	        0.0000000000	
        0.6854234408	        0.0063888467	       -0.0057477491	        0.0003608247	        0.0000000000	        0.0000000000	        0.0000000000	     -145.4712915971	      886.3373866640	       21.6902051748	        0.9890534503	        0.0000000000	       -0.0595323044	        0.0000000000	        0.0000000000	        0.0000000000	        0.0000000000	        0.0000000000	        0.0000000000	
        0.6974484135	        0.0001444035	       -0.0001173096	        0.0000065103	        0.0000000000	        0.0000000000	        0.0000000000	     -122.8549929293	      808.3204812708	       18.9847358646	        0.9936184726	        0.0000000000	       -0.0589411771	        0.0000000000	        0.0000000000	        0.0000000000	        0.0000000000	        0.0000000000	        0.0000000000	
        0.7094733861	        0.0000208705	       -0.0000153156	        0.0000007884	        0.0000000000	        0.0000000000	        0.0000000000	     -104.4706382804	      746.3957719327	       17.5630727012	        0.9976078253	        0.0000000000	       -0.0585767888	        0.0000000000	        0.0000000000	        0.0000000000	        0.0000000000	        0.0000000000	        0.0000000000	
        0.7214983588	        0.0000679580	       -0.0000464919	        0.0000018851	        0.0000000000	        0.0000000000	        0.0000000000	      -91.2146912107	      705.9580804835	       17.2906181323	        1.0011159973	        0.0000000000	       -0.0583251640	        0.0000000000	        0.0000000000	        0.0000000000	        0.0000000000	        0.0000000000	        0.0000000000	
        0.7335233314	        0.0005187228	       -0.0003265544	        0.0000164314	        0.0000000000	        0.0000000000	        0.0000000000	      -79.7967207306	      681.0249638463	       19.1108604602	        1.0042159799	        0.0000000000	       -0.0581366261	        0.0000000000	        0.0000000000	        0.0000000000	        0.0000000000	        0.0000000000	        0.0000000000	
        0.7455483041	       -0.0041083197	        0.0023696857	       -0.0001806206	        0.0000000000	        0.0000000000	        0.0000000000	      -68.0541859439	      658.4877061377	       19.8511772996	        1.0072599525	        0.0000000000	       -0.0580248728	        0.0000000000	        0.0000000000	        0.0000000000	        0.0000000000	        0.0000000000	        0.0000000000	
        0.7575732767	       -0.0042155928	        0.0022596378	       -0.0002167615	        0.0000000000	        0.0000000000	        0.0000000000	      -57.2751548603	      637.1541146443	       19.9328099788	        1.0104777413	        0.0000000000	       -0.0579506166	        0.0000000000	        0.0000000000	        0.0000000000	        0.0000000000	        0.0000000000	        0.0000000000	
        0.7695982494	       -0.0024025357	        0.0012134750	       -0.0001334177	        0.0000000000	        0.0000000000	        0.0000000000	      -47.7359496980	      619.1049545990	       20.1628376256	        1.0141868375	        0.0000000000	       -0.0578572112	        0.0000000000	        0.0000000000	        0.0000000000	        0.0000000000	        0.0000000000	        0.0000000000	
        0.7816232220	       -0.0016986563	        0.0008175327	       -0.0000974322	        0.0000000000	        0.0000000000	        0.0000000000	      -39.9673656459	      605.2337463773	       20.7626000876	        1.0187124383	        0.0000000000	       -0.0576771484	        0.0000000000	        0.0000000000	        0.0000000000	        0.0000000000	        0.0000000000	        0.0000000000	
        0.7936481947	       -0.0016277726	        0.0007526244	       -0.0000943030	        0.0000000000	        0.0000000000	        0.0000000000	      -34.1266539300	      595.0437104808	       21.1236713812	        1.0238392311	        0.0000000000	       -0.0573997770	        0.0000000000	        0.0000000000	        0.0000000000	        0.0000000000	        0.0000000000	        0.0000000000	
        0.8056731673	       -0.0021054344	        0.0009403826	       -0.0001208855	        0.0000000000	        0.0000000000	        0.0000000000	      -28.8994801103	      588.3132548764	       21.1070817293	        1.0294026099	        0.0000000000	       -0.0570323236	        0.0000000000	        0.0000000000	        0.0000000000	        0.0000000000	        0.0000000000	        0.0000000000	
        0.8176981400	       -0.0035369496	        0.0015320841	       -0.0001970799	        0.0000000000	        0.0000000000	        0.0000000000	      -25.6156716149	      584.5154057833	       21.0946332360	        1.0351093080	        0.0000000000	       -0.0565890762	        0.0000000000	        0.0000000000	        0.0000000000	        0.0000000000	        0.0000000000	        0.0000000000	
        0.8297231126	       -0.0073545598	        0.0031000459	       -0.0003919359	        0.0000000000	        0.0000000000	        0.0000000000	      -23.0173063548	      582.4784639866	       21.0896287912	        1.0406013751	        0.0000000000	       -0.0561224926	        0.0000000000	        0.0000000000	        0.0000000000	        0.0000000000	        0.0000000000	        0.0000000000	
        0.8417480852	       -0.0176199904	        0.0072500277	       -0.0008900916	        0.0000000000	        0.0000000000	        0.0000000000	      -20.2743780746	      581.1923197384	       21.2311752722	        1.0459573800	        0.0000000000	       -0.0556345182	        0.0000000000	        0.0000000000	        0.0000000000	        0.0000000000	        0.0000000000	        0.0000000000	
        0.8537730579	       -0.0446949236	        0.0180066426	       -0.0021322045	        0.0000000000	        0.0000000000	        0.0000000000	      -17.6247480762	      579.7355246047	       21.3974058621	        1.0511500510	        0.0000000000	       -0.0551328596	        0.0000000000	        0.0000000000	        0.0000000000	        0.0000000000	        0.0000000000	        0.0000000000	
        0.8657980305	       -0.1101324475	        0.0435829078	       -0.0049580225	        0.0000000000	        0.0000000000	        0.0000000000	      -14.9849511760	      577.6157915875	       21.4584783603	        1.0560866767	        0.0000000000	       -0.0546403475	        0.0000000000	        0.0000000000	        0.0000000000	        0.0000000000	        0.0000000000	        0.0000000000	
        0.8778230032	       -0.2458126587	        0.0958725495	       -0.0104695353	        0.0000000000	        0.0000000000	        0.0000000000	      -12.2935749622	      575.0064605851	       21.5895936503	        1.0608119175	        0.0000000000	       -0.0541554559	        0.0000000000	        0.0000000000	        0.0000000000	        0.0000000000	        0.0000000000	        0.0000000000	
        0.8898479758	       -0.4766875279	        0.1838464403	       -0.0192909975	        0.0000000000	        0.0000000000	        0.0000000000	       -9.6422239875	      571.7965178270	       21.7287249468	        1.0653324974	        0.0000000000	       -0.0536796067	        0.0000000000	        0.0000000000	        0.0000000000	        0.0000000000	        0.0000000000	        0.0000000000	
        0.9018729485	       -0.7876321663	        0.3013409976	       -0.0302270776	        0.0000000000	        0.0000000000	        0.0000000000	       -7.0511845485	      568.0433152858	       21.7006151097	        1.0696310320	        0.0000000000	       -0.0532180533	        0.0000000000	        0.0000000000	        0.0000000000	        0.0000000000	        0.0000000000	        0.0000000000	
        0.9138979211	       -1.1125388451	        0.4234396368	       -0.0401896209	        0.0000000000	        0.0000000000	        0.0000000000	       -4.6277867618	      563.0889123767	       21.4143649877	        1.0736548741	        0.0000000000	       -0.0527794101	        0.0000000000	        0.0000000000	        0.0000000000	        0.0000000000	        0.0000000000	        0.0000000000	
